<svg width="28" height="28" viewBox="0 0 28 28" fill="none" xmlns="http://www.w3.org/2000/svg">
<g clip-path="url(#clip0_976_4779)">
<path d="M14.0003 25.666C15.2837 25.666 16.3337 24.616 16.3337 23.3327H11.667C11.667 24.616 12.717 25.666 14.0003 25.666ZM21.0003 18.666V12.8327C21.0003 9.25102 19.0987 6.25268 15.7503 5.45935V4.66602C15.7503 3.69768 14.9687 2.91602 14.0003 2.91602C13.032 2.91602 12.2503 3.69768 12.2503 4.66602V5.45935C8.91366 6.25268 7.00033 9.23935 7.00033 12.8327V18.666L4.66699 20.9993V22.166H23.3337V20.9993L21.0003 18.666ZM18.667 19.8327H9.33366V12.8327C9.33366 9.93935 11.0953 7.58268 14.0003 7.58268C16.9053 7.58268 18.667 9.93935 18.667 12.8327V19.8327Z" fill="white"/>
</g>
<defs>
<clipPath id="clip0_976_4779">
<rect width="28" height="28" fill="white"/>
</clipPath>
</defs>
</svg>
