<svg width="28" height="28" viewBox="0 0 28 28" fill="currentColor" xmlns="http://www.w3.org/2000/svg">
<g clip-path="url(#clip0_362_2590)">
<path d="M13.9998 25.667C15.2832 25.667 16.3332 24.617 16.3332 23.3337H11.6665C11.6665 24.617 12.7165 25.667 13.9998 25.667ZM20.9998 18.667V12.8337C20.9998 9.25199 19.0982 6.25366 15.7498 5.46033V4.66699C15.7498 3.69866 14.9682 2.91699 13.9998 2.91699C13.0315 2.91699 12.2498 3.69866 12.2498 4.66699V5.46033C8.91317 6.25366 6.99984 9.24033 6.99984 12.8337V18.667L4.6665 21.0003V22.167H23.3332V21.0003L20.9998 18.667ZM18.6665 19.8337H9.33317V12.8337C9.33317 9.94033 11.0948 7.58366 13.9998 7.58366C16.9048 7.58366 18.6665 9.94033 18.6665 12.8337V19.8337Z" fill="currentColor"/>
</g>
<defs>
<clipPath id="clip0_362_2590">
<rect width="28" height="28" fill="currentColor"/>
</clipPath>
</defs>
</svg>
