<svg width="16" height="16" viewBox="0 0 16 16" fill="none" xmlns="http://www.w3.org/2000/svg">
<g clip-path="url(#clip0_1153_5222)">
<path d="M13.3333 2.00033H12.6666V0.666992H11.3333V2.00033H4.66659V0.666992H3.33325V2.00033H2.66659C1.93325 2.00033 1.33325 2.60033 1.33325 3.33366V14.0003C1.33325 14.7337 1.93325 15.3337 2.66659 15.3337H13.3333C14.0666 15.3337 14.6666 14.7337 14.6666 14.0003V3.33366C14.6666 2.60033 14.0666 2.00033 13.3333 2.00033ZM13.3333 3.33366V5.33366H2.66659V3.33366H13.3333ZM2.66659 14.0003V6.66699H13.3333V14.0003H2.66659Z" fill="#3370F0"/>
<path d="M2.66675 3.33984H13.3334V5.33318H2.66675V3.33984Z" fill="#3370F0"/>
</g>
<defs>
<clipPath id="clip0_1153_5222">
<rect width="16" height="16" fill="white"/>
</clipPath>
</defs>
</svg>
