<svg width="21" height="20" viewBox="0 0 21 20" fill="none" xmlns="http://www.w3.org/2000/svg">
<g clip-path="url(#clip0_432_5076)">
<path d="M14.6097 2.5C13.1597 2.5 11.768 3.175 10.8597 4.24167C9.95137 3.175 8.5597 2.5 7.1097 2.5C4.54303 2.5 2.52637 4.51667 2.52637 7.08333C2.52637 10.2333 5.3597 12.8 9.65137 16.7L10.8597 17.7917L12.068 16.6917C16.3597 12.8 19.193 10.2333 19.193 7.08333C19.193 4.51667 17.1764 2.5 14.6097 2.5ZM10.943 15.4583L10.8597 15.5417L10.7764 15.4583C6.8097 11.8667 4.19303 9.49167 4.19303 7.08333C4.19303 5.41667 5.44303 4.16667 7.1097 4.16667C8.39303 4.16667 9.64303 4.99167 10.0847 6.13333H11.643C12.0764 4.99167 13.3264 4.16667 14.6097 4.16667C16.2764 4.16667 17.5264 5.41667 17.5264 7.08333C17.5264 9.49167 14.9097 11.8667 10.943 15.4583Z" fill="#FF5E5E"/>
</g>
<defs>
<clipPath id="clip0_432_5076">
<rect width="20" height="20" fill="white" transform="translate(0.859619)"/>
</clipPath>
</defs>
</svg>
