<svg width="26" height="26" viewBox="0 0 26 26" fill="none" xmlns="http://www.w3.org/2000/svg">
<g clip-path="url(#clip0_244_3011)">
<path d="M14.0832 7.58268H11.9165V11.916H7.58317V14.0827H11.9165V18.416H14.0832V14.0827H18.4165V11.916H14.0832V7.58268ZM12.9998 2.16602C7.01984 2.16602 2.1665 7.01935 2.1665 12.9993C2.1665 18.9793 7.01984 23.8327 12.9998 23.8327C18.9798 23.8327 23.8332 18.9793 23.8332 12.9993C23.8332 7.01935 18.9798 2.16602 12.9998 2.16602ZM12.9998 21.666C8.22234 21.666 4.33317 17.7768 4.33317 12.9993C4.33317 8.22185 8.22234 4.33268 12.9998 4.33268C17.7773 4.33268 21.6665 8.22185 21.6665 12.9993C21.6665 17.7768 17.7773 21.666 12.9998 21.666Z" fill="#4F85F6"/>
</g>
<defs>
<clipPath id="clip0_244_3011">
<rect width="26" height="26" fill="white"/>
</clipPath>
</defs>
</svg>
