<svg width="28" height="28" viewBox="0 0 28 28" fill="none" xmlns="http://www.w3.org/2000/svg">
<g clip-path="url(#clip0_244_2054)">
<path d="M14.0002 11.3384L12.9035 13.6741L10.5002 14.7399L12.9035 15.8058L14.0002 18.1415L15.0968 15.8058L17.5002 14.7399L15.0968 13.6741L14.0002 11.3384ZM23.3335 5.66908H19.6352L17.5002 3.40137H10.5002L8.36516 5.66908H4.66683C3.3835 5.66908 2.3335 6.68956 2.3335 7.9368V21.5431C2.3335 22.7903 3.3835 23.8108 4.66683 23.8108H23.3335C24.6168 23.8108 25.6668 22.7903 25.6668 21.5431V7.9368C25.6668 6.68956 24.6168 5.66908 23.3335 5.66908ZM23.3335 21.5431H4.66683V7.9368H9.39183L10.0802 7.19979L11.5268 5.66908H16.4735L17.9202 7.19979L18.6085 7.9368H23.3335V21.5431ZM14.0002 9.07066C10.7802 9.07066 8.16683 11.6105 8.16683 14.7399C8.16683 17.8694 10.7802 20.4092 14.0002 20.4092C17.2202 20.4092 19.8335 17.8694 19.8335 14.7399C19.8335 11.6105 17.2202 9.07066 14.0002 9.07066ZM14.0002 18.1415C12.0752 18.1415 10.5002 16.6108 10.5002 14.7399C10.5002 12.8691 12.0752 11.3384 14.0002 11.3384C15.9252 11.3384 17.5002 12.8691 17.5002 14.7399C17.5002 16.6108 15.9252 18.1415 14.0002 18.1415Z" fill="#3370F0"/>
</g>
<defs>
<clipPath id="clip0_244_2054">
<rect width="28" height="27.2126" fill="white"/>
</clipPath>
</defs>
</svg>
