<svg width="36" height="36" viewBox="0 0 36 36" fill="none" xmlns="http://www.w3.org/2000/svg">
<g clip-path="url(#clip0_234_3075)">
<path d="M19.5 9V13.5H24V16.5H19.5V21H16.5V16.5H12V13.5H16.5V9H19.5ZM27 15.3C27 9.855 23.025 6 18 6C12.975 6 9 9.855 9 15.3C9 18.81 11.925 23.46 18 29.01C24.075 23.46 27 18.81 27 15.3ZM18 3C24.3 3 30 7.83 30 15.3C30 20.28 25.995 26.175 18 33C10.005 26.175 6 20.28 6 15.3C6 7.83 11.7 3 18 3Z" fill="#3370F0"/>
</g>
<defs>
<clipPath id="clip0_234_3075">
<rect width="36" height="36" fill="white"/>
</clipPath>
</defs>
</svg>
