<svg width="64" height="64" viewBox="0 0 64 64" fill="none" xmlns="http://www.w3.org/2000/svg">
<circle opacity="0.2" cx="32" cy="32" r="32" fill="#3370F0"/>
<circle cx="32" cy="32" r="26" fill="#3370F0"/>
<path d="M38.891 29.1845C39.3311 29.1845 39.719 29.3441 40.0453 29.6256C40.3263 29.9325 40.5001 30.317 40.5001 30.7451V32.8057C40.5001 33.2517 40.3369 33.6317 40.0461 33.9252C39.7374 34.2123 39.3487 34.3905 38.9152 34.3905H35.4243C34.842 34.3905 34.4152 34.8724 34.4152 35.3996V38.9148C34.4152 39.3608 34.252 39.7408 33.9613 40.0343C33.6525 40.3214 33.2638 40.4996 32.8304 40.4996H30.7698C30.3237 40.4996 29.9437 40.3364 29.6502 40.0456C29.3631 39.7369 29.1849 39.3482 29.1849 38.9148V35.4238C29.1849 34.8415 28.7031 34.4148 28.1759 34.4148H24.6849C24.2389 34.4148 23.8589 34.2515 23.5654 33.9608C23.2783 33.652 23.1001 33.2633 23.1001 32.8299V30.7693C23.1001 30.3232 23.2633 29.9433 23.5541 29.6497C23.8628 29.3626 24.2515 29.1845 24.6849 29.1845H28.1516C28.734 29.1845 29.1607 28.7026 29.1607 28.1754V24.6845C29.1607 24.2384 29.3239 23.8584 29.6147 23.5649C29.9234 23.2778 30.3121 23.0996 30.7455 23.0996H32.8062C33.2522 23.0996 33.6322 23.2628 33.9257 23.5536C34.2128 23.8623 34.391 24.251 34.391 24.6845V28.1754C34.391 28.7577 34.8729 29.1845 35.4001 29.1845H38.891Z" fill="white" stroke="#3370F0"/>
</svg>
