<svg width="160" height="256" viewBox="0 0 160 256" fill="none" xmlns="http://www.w3.org/2000/svg">
<path fill-rule="evenodd" clip-rule="evenodd" d="M80 0C124.183 0 160 35.8172 160 80V176C160 220.183 124.183 256 80 256C35.8172 256 0 220.183 0 176V80C0 35.8172 35.8172 0 80 0Z" fill="url(#paint0_linear_234_2053)"/>
<mask id="mask0_234_2053" style="mask-type:luminance" maskUnits="userSpaceOnUse" x="0" y="0" width="160" height="256">
<path fill-rule="evenodd" clip-rule="evenodd" d="M80 0C124.183 0 160 35.8172 160 80V176C160 220.183 124.183 256 80 256C35.8172 256 0 220.183 0 176V80C0 35.8172 35.8172 0 80 0Z" fill="white"/>
</mask>
<g mask="url(#mask0_234_2053)">
<path opacity="0.4" fill-rule="evenodd" clip-rule="evenodd" d="M42.3588 156.853L-6.04492 169.844V159.193C-6.04492 159.193 1.86263 162.741 6.71517 161.728C11.5677 160.715 13.1136 155.479 19.1804 154.027C24.7629 152.69 31.3643 155.993 41.2455 156.193L42.3588 156.853Z" fill="#0053A6" fill-opacity="0.4"/>
<path fill-rule="evenodd" clip-rule="evenodd" d="M66.4944 143.64L77.8337 140.592C87.0577 138.111 88.9867 144.38 88.9867 144.38L68.4134 149.887L58.8074 165.18L53.9555 166.313L57.012 152.938L39.6064 157.597L32.5156 148.842C32.5156 148.842 33.8652 148.318 35.8781 148.545C37.891 148.772 40.4241 150.649 40.4241 150.649L55.5084 146.594L46.1805 136.829L51.1431 135.467L66.4944 143.64Z" fill="#0053A6" fill-opacity="0.3"/>
<path opacity="0.4" fill-rule="evenodd" clip-rule="evenodd" d="M56.3004 112.564L-10.667 131V115.885C-10.667 115.885 -1.8656 121.986 6.98678 119.482C15.8392 116.978 15.8392 110.614 24.2326 108.552C31.9561 106.655 41.4978 113.007 54.76 111.627L56.3004 112.564Z" fill="white"/>
<path fill-rule="evenodd" clip-rule="evenodd" d="M64.1426 82.0316L79.0686 97.6567L96.0154 93.0293L71.5441 80L64.1426 82.0316Z" fill="#CBDCEB"/>
<path fill-rule="evenodd" clip-rule="evenodd" d="M43.7627 99.9487L54.3382 113.007L127.986 93.2937C127.986 93.2937 125.109 83.9451 111.352 87.6446L55.5578 102.644C55.5578 102.644 51.7797 99.8443 48.7776 99.506C45.7755 99.1677 43.7627 99.9487 43.7627 99.9487Z" fill="white"/>
<path fill-rule="evenodd" clip-rule="evenodd" d="M81.5024 102.977L75.7393 128.195L82.9757 126.505L101.096 97.6562L81.5024 102.977Z" fill="url(#paint1_linear_234_2053)"/>
<path fill-rule="evenodd" clip-rule="evenodd" d="M96.1811 59.7594C96.0675 60.018 95.7759 61.2233 96.3121 61.8321C96.8483 62.441 97.9814 62.098 97.9814 62.098L139.028 50.1135C139.028 50.1135 140.237 49.7776 140.41 48.9045C140.584 48.0314 140.05 47.4581 139.54 46.9524C136.059 43.5066 132.314 42.1384 128.303 42.8476C123.302 43.732 121.064 46.3003 119.854 47.689C119.395 48.216 119.084 48.5732 118.826 48.6038C118.623 48.6279 118.268 48.5858 117.804 48.5309C116.125 48.332 113.024 47.9648 110.608 49.9678C108.456 51.7511 107.971 53.5632 107.672 54.6833C107.542 55.1685 107.447 55.5238 107.266 55.6909C107.045 55.8954 106.427 55.7952 105.577 55.6576C104.131 55.4233 102.015 55.0806 100.048 55.9477C98.2353 56.7469 96.9464 58.0174 96.1811 59.7594ZM-10.4692 214.815C-10.8593 214.348 -10.5691 213.576 -10.4692 213.333C-9.79588 211.695 -8.66189 210.501 -7.06719 209.75C-5.33668 208.935 -3.47504 209.257 -2.20265 209.477C-1.45518 209.606 -0.91106 209.701 -0.716345 209.508C-0.55733 209.351 -0.473751 209.017 -0.359649 208.561C-0.0961933 207.508 0.329991 205.805 2.2232 204.129C4.10953 202.458 6.83438 202.653 8.61166 202.78C9.3907 202.836 9.98768 202.879 10.2522 202.746C10.4785 202.632 10.8266 202.249 11.2929 201.738C12.6148 200.287 14.886 197.793 18.0217 197.417C22.2633 196.907 25.0053 198.862 26.3052 199.88C27.6051 200.898 28.5628 202.43 28.4322 203.188C28.3015 203.946 27.3299 204.269 27.3299 204.269L-9.3252 215.013C-9.3252 215.013 -10.079 215.281 -10.4692 214.815ZM97.9422 232.563C97.6298 232.1 97.8393 231.31 97.9422 231.071C98.6356 229.461 99.8036 228.287 101.446 227.549C103.228 226.747 105.146 227.064 106.456 227.281C107.226 227.408 107.786 227.5 107.987 227.311C108.129 227.177 108.029 226.842 107.886 226.361C107.483 225.007 106.735 222.494 110.043 220.026C113.592 217.377 120.251 218.985 123.297 219.72C124.1 219.914 124.652 220.047 124.83 220.026C125.064 219.997 125.115 219.716 125.19 219.301C125.387 218.209 125.752 216.185 130.049 215.342C135.985 214.178 141.064 217.733 141.61 218.328C142.155 218.924 142.333 219.35 142.155 219.975C141.978 220.599 140.995 220.902 140.995 220.902L99.0468 232.829C99.0468 232.829 98.2546 233.026 97.9422 232.563Z" fill="#0053A6" fill-opacity="0.2"/>
<path fill-rule="evenodd" clip-rule="evenodd" d="M99.8025 39.4359C99.6481 39.7904 99.252 41.443 99.9805 42.2778C100.709 43.1125 102.248 42.6422 102.248 42.6422L158.017 26.2108C158.017 26.2108 159.66 25.7503 159.895 24.5533C160.131 23.3563 159.406 22.5702 158.712 21.8769C153.984 17.1525 148.895 15.2766 143.445 16.249C136.65 17.4615 133.61 20.9827 131.966 22.8867C131.342 23.6094 130.919 24.099 130.569 24.1411C130.293 24.1741 129.811 24.1164 129.181 24.0411C126.899 23.7684 122.687 23.2649 119.403 26.0111C116.48 28.4562 115.821 30.9406 115.415 32.4764C115.238 33.1415 115.109 33.6287 114.864 33.8577C114.563 34.1382 113.723 34.0008 112.568 33.8121C110.604 33.4909 107.729 33.021 105.056 34.2099C102.593 35.3056 100.842 37.0476 99.8025 39.4359ZM-15.8303 197.99C-16.4328 197.309 -15.9846 196.183 -15.8303 195.829C-14.7905 193.44 -13.0393 191.698 -10.5766 190.603C-7.90415 189.414 -5.02922 189.884 -3.06428 190.205C-1.90996 190.393 -1.06967 190.531 -0.768975 190.25C-0.52341 190.021 -0.39434 189.534 -0.218131 188.869C0.188723 187.333 0.846876 184.849 3.77056 182.404C6.68361 179.967 10.8916 180.252 13.6362 180.437H13.6364C14.8394 180.518 15.7612 180.581 16.1697 180.386C16.5191 180.22 17.0568 179.663 17.7768 178.916L17.7769 178.916C19.8183 176.8 23.3258 173.163 28.1681 172.614C34.7185 171.87 38.9529 174.722 40.9603 176.207C42.9677 177.692 44.4468 179.926 44.245 181.031C44.0433 182.137 42.5428 182.609 42.5428 182.609L-14.0636 198.279C-14.0636 198.279 -15.2278 198.67 -15.8303 197.99ZM99.8026 214.336C99.3341 213.649 99.6482 212.478 99.8026 212.123C100.842 209.735 102.594 207.993 105.056 206.897C107.729 205.708 110.604 206.178 112.569 206.5C113.723 206.688 114.563 206.826 114.864 206.545C115.077 206.346 114.928 205.849 114.713 205.135C114.108 203.126 112.987 199.399 117.947 195.736C123.269 191.807 133.253 194.192 137.82 195.283L137.821 195.283C139.025 195.571 139.852 195.768 140.118 195.736C140.47 195.694 140.546 195.278 140.658 194.661C140.953 193.041 141.501 190.039 147.945 188.789C156.845 187.062 164.46 192.336 165.279 193.219C166.097 194.102 166.364 194.735 166.097 195.661C165.83 196.587 164.356 197.037 164.356 197.037L101.459 214.73C101.459 214.73 100.271 215.023 99.8026 214.336Z" fill="white"/>
</g>
<defs>
<linearGradient id="paint0_linear_234_2053" x1="3.56394" y1="11.4046" x2="3.56394" y2="256" gradientUnits="userSpaceOnUse">
<stop stop-color="#2D91E0"/>
<stop offset="1" stop-color="#68B4E8"/>
</linearGradient>
<linearGradient id="paint1_linear_234_2053" x1="77.732" y1="94.762" x2="64.758" y2="118.684" gradientUnits="userSpaceOnUse">
<stop stop-color="#DBE5E8"/>
<stop offset="1" stop-color="#91D3FF"/>
</linearGradient>
</defs>
</svg>
