<svg width="60" height="60" viewBox="0 0 60 60" fill="none" xmlns="http://www.w3.org/2000/svg">
<circle cx="30" cy="30" r="29.5" fill="white" stroke="#EEEEEE"/>
<g filter="url(#filter0_d_485_5152)">
<path d="M23.3189 32.5027L22.4835 35.6213L19.4301 35.6859C18.5176 33.9934 18 32.057 18 29.9992C18 28.0093 18.4839 26.1328 19.3418 24.4805H19.3424L22.0608 24.9788L23.2516 27.6809C23.0024 28.4075 22.8665 29.1875 22.8665 29.9992C22.8666 30.88 23.0262 31.724 23.3189 32.5027Z" fill="#FBBB00"/>
</g>
<g filter="url(#filter1_d_485_5152)">
<path d="M41.7903 27.7578C41.9281 28.4837 41.9999 29.2334 41.9999 29.9996C41.9999 30.8587 41.9096 31.6967 41.7375 32.5051C41.1534 35.2558 39.627 37.6578 37.5125 39.3576L37.5118 39.3569L34.0879 39.1822L33.6033 36.1572C35.0063 35.3343 36.1028 34.0466 36.6804 32.5051H30.2637V27.7578H36.774H41.7903Z" fill="#518EF8"/>
</g>
<g filter="url(#filter2_d_485_5152)">
<path d="M37.5115 39.3577L37.5122 39.3584C35.4557 41.0113 32.8434 42.0004 29.9996 42.0004C25.4297 42.0004 21.4565 39.4461 19.4297 35.6872L23.3185 32.5039C24.3319 35.2085 26.9409 37.1338 29.9996 37.1338C31.3143 37.1338 32.546 36.7784 33.6029 36.158L37.5115 39.3577Z" fill="#28B446"/>
</g>
<g filter="url(#filter3_d_485_5152)">
<path d="M37.6597 20.7626L33.7722 23.9452C32.6784 23.2615 31.3854 22.8666 30.0001 22.8666C26.8722 22.8666 24.2143 24.8802 23.2517 27.6817L19.3425 24.4813H19.3418C21.339 20.6308 25.3623 18 30.0001 18C32.9118 18 35.5815 19.0372 37.6597 20.7626Z" fill="#F14336"/>
</g>
<defs>
<filter id="filter0_d_485_5152" x="10" y="20.4805" width="21.3193" height="27.2051" filterUnits="userSpaceOnUse" color-interpolation-filters="sRGB">
<feFlood flood-opacity="0" result="BackgroundImageFix"/>
<feColorMatrix in="SourceAlpha" type="matrix" values="0 0 0 0 0 0 0 0 0 0 0 0 0 0 0 0 0 0 127 0" result="hardAlpha"/>
<feOffset dy="4"/>
<feGaussianBlur stdDeviation="4"/>
<feColorMatrix type="matrix" values="0 0 0 0 0.984314 0 0 0 0 0.733333 0 0 0 0 0 0 0 0 0.12 0"/>
<feBlend mode="normal" in2="BackgroundImageFix" result="effect1_dropShadow_485_5152"/>
<feBlend mode="normal" in="SourceGraphic" in2="effect1_dropShadow_485_5152" result="shape"/>
</filter>
<filter id="filter1_d_485_5152" x="22.2637" y="23.7578" width="27.7363" height="27.5996" filterUnits="userSpaceOnUse" color-interpolation-filters="sRGB">
<feFlood flood-opacity="0" result="BackgroundImageFix"/>
<feColorMatrix in="SourceAlpha" type="matrix" values="0 0 0 0 0 0 0 0 0 0 0 0 0 0 0 0 0 0 127 0" result="hardAlpha"/>
<feOffset dy="4"/>
<feGaussianBlur stdDeviation="4"/>
<feColorMatrix type="matrix" values="0 0 0 0 0.317647 0 0 0 0 0.556863 0 0 0 0 0.972549 0 0 0 0.12 0"/>
<feBlend mode="normal" in2="BackgroundImageFix" result="effect1_dropShadow_485_5152"/>
<feBlend mode="normal" in="SourceGraphic" in2="effect1_dropShadow_485_5152" result="shape"/>
</filter>
<filter id="filter2_d_485_5152" x="11.4297" y="28.5039" width="34.082" height="25.4961" filterUnits="userSpaceOnUse" color-interpolation-filters="sRGB">
<feFlood flood-opacity="0" result="BackgroundImageFix"/>
<feColorMatrix in="SourceAlpha" type="matrix" values="0 0 0 0 0 0 0 0 0 0 0 0 0 0 0 0 0 0 127 0" result="hardAlpha"/>
<feOffset dy="4"/>
<feGaussianBlur stdDeviation="4"/>
<feColorMatrix type="matrix" values="0 0 0 0 0.156863 0 0 0 0 0.705882 0 0 0 0 0.27451 0 0 0 0.12 0"/>
<feBlend mode="normal" in2="BackgroundImageFix" result="effect1_dropShadow_485_5152"/>
<feBlend mode="normal" in="SourceGraphic" in2="effect1_dropShadow_485_5152" result="shape"/>
</filter>
<filter id="filter3_d_485_5152" x="11.3418" y="14" width="34.3184" height="25.6816" filterUnits="userSpaceOnUse" color-interpolation-filters="sRGB">
<feFlood flood-opacity="0" result="BackgroundImageFix"/>
<feColorMatrix in="SourceAlpha" type="matrix" values="0 0 0 0 0 0 0 0 0 0 0 0 0 0 0 0 0 0 127 0" result="hardAlpha"/>
<feOffset dy="4"/>
<feGaussianBlur stdDeviation="4"/>
<feColorMatrix type="matrix" values="0 0 0 0 0.945098 0 0 0 0 0.262745 0 0 0 0 0.211765 0 0 0 0.12 0"/>
<feBlend mode="normal" in2="BackgroundImageFix" result="effect1_dropShadow_485_5152"/>
<feBlend mode="normal" in="SourceGraphic" in2="effect1_dropShadow_485_5152" result="shape"/>
</filter>
</defs>
</svg>
