<svg width="32" height="32" viewBox="0 0 32 32" fill="none" xmlns="http://www.w3.org/2000/svg">
<g clip-path="url(#clip0_447_690)">
<path d="M16.0003 2.66699C8.64033 2.66699 2.66699 8.64033 2.66699 16.0003C2.66699 23.3603 8.64033 29.3337 16.0003 29.3337C23.3603 29.3337 29.3337 23.3603 29.3337 16.0003C29.3337 8.64033 23.3603 2.66699 16.0003 2.66699ZM16.0003 5.33366C19.867 5.33366 23.2537 7.41366 25.1203 10.507C24.547 10.6003 23.947 10.667 23.3337 10.667C19.467 10.667 16.0803 8.58699 14.2137 5.49366C14.787 5.40033 15.387 5.33366 16.0003 5.33366ZM10.7737 6.70699C9.93366 9.22699 8.17366 11.3337 5.89366 12.627C6.73366 10.107 8.49366 8.00033 10.7737 6.70699ZM16.0003 26.667C10.1203 26.667 5.33366 21.8803 5.33366 16.0003C5.33366 15.9337 5.34699 15.867 5.34699 15.8003C8.81366 14.4937 11.587 11.8137 13.0003 8.40033C15.4403 11.4137 19.1603 13.3337 23.3337 13.3337C24.3337 13.3337 25.2937 13.2137 26.227 13.0137C26.507 13.9603 26.667 14.9603 26.667 16.0003C26.667 21.8803 21.8803 26.667 16.0003 26.667Z" fill="#535964"/>
<path d="M11.9997 19.0003C12.9201 19.0003 13.6663 18.2541 13.6663 17.3337C13.6663 16.4132 12.9201 15.667 11.9997 15.667C11.0792 15.667 10.333 16.4132 10.333 17.3337C10.333 18.2541 11.0792 19.0003 11.9997 19.0003Z" fill="#535964"/>
<path d="M19.9997 19.0003C20.9201 19.0003 21.6663 18.2541 21.6663 17.3337C21.6663 16.4132 20.9201 15.667 19.9997 15.667C19.0792 15.667 18.333 16.4132 18.333 17.3337C18.333 18.2541 19.0792 19.0003 19.9997 19.0003Z" fill="#535964"/>
</g>
<defs>
<clipPath id="clip0_447_690">
<rect width="32" height="32" fill="white"/>
</clipPath>
</defs>
</svg>
