<svg width="32" height="32" viewBox="0 0 32 32" fill="none" xmlns="http://www.w3.org/2000/svg">
<g clip-path="url(#clip0_457_5110)">
<path d="M16.0003 2.66602C8.64033 2.66602 2.66699 8.63935 2.66699 15.9993C2.66699 23.3594 8.64033 29.3327 16.0003 29.3327C23.3603 29.3327 29.3337 23.3594 29.3337 15.9993C29.3337 8.63935 23.3603 2.66602 16.0003 2.66602ZM16.0003 5.33268C19.867 5.33268 23.2537 7.41268 25.1203 10.506C24.547 10.5993 23.947 10.666 23.3337 10.666C19.467 10.666 16.0803 8.58602 14.2137 5.49268C14.787 5.39935 15.387 5.33268 16.0003 5.33268ZM10.7737 6.70602C9.93366 9.22602 8.17366 11.3327 5.89366 12.626C6.73366 10.106 8.49366 7.99935 10.7737 6.70602ZM16.0003 26.666C10.1203 26.666 5.33366 21.8793 5.33366 15.9993C5.33366 15.9327 5.34699 15.866 5.34699 15.7993C8.81366 14.4927 11.587 11.8127 13.0003 8.39935C15.4403 11.4127 19.1603 13.3327 23.3337 13.3327C24.3337 13.3327 25.2937 13.2127 26.227 13.0127C26.507 13.9593 26.667 14.9593 26.667 15.9993C26.667 21.8793 21.8803 26.666 16.0003 26.666Z" fill="#3370F0"/>
<path d="M11.9997 18.9993C12.9201 18.9993 13.6663 18.2532 13.6663 17.3327C13.6663 16.4122 12.9201 15.666 11.9997 15.666C11.0792 15.666 10.333 16.4122 10.333 17.3327C10.333 18.2532 11.0792 18.9993 11.9997 18.9993Z" fill="#3370F0"/>
<path d="M19.9997 18.9993C20.9201 18.9993 21.6663 18.2532 21.6663 17.3327C21.6663 16.4122 20.9201 15.666 19.9997 15.666C19.0792 15.666 18.333 16.4122 18.333 17.3327C18.333 18.2532 19.0792 18.9993 19.9997 18.9993Z" fill="#3370F0"/>
</g>
<defs>
<clipPath id="clip0_457_5110">
<rect width="32" height="32" fill="white"/>
</clipPath>
</defs>
</svg>
