<svg width="50" height="50" viewBox="0 0 50 50" fill="none" xmlns="http://www.w3.org/2000/svg">
<g clip-path="url(#clip0_439_6301)">
<path d="M16.6663 18.7507C17.8169 18.7507 18.7497 17.8179 18.7497 16.6673C18.7497 15.5167 17.8169 14.584 16.6663 14.584C15.5157 14.584 14.583 15.5167 14.583 16.6673C14.583 17.8179 15.5157 18.7507 16.6663 18.7507Z" fill="#0041CB"/>
<path d="M31.25 6.25H10.4167C8.125 6.25 6.27083 8.125 6.27083 10.4167L6.25 39.5833C6.25 41.875 8.10417 43.75 10.3958 43.75H39.5833C41.875 43.75 43.75 41.875 43.75 39.5833V18.75L31.25 6.25ZM39.5833 39.5833H10.4167V10.4167H29.1667V20.8333H39.5833V39.5833Z" fill="#0041CB"/>
<path d="M16.6663 27.0827C17.8169 27.0827 18.7497 26.1499 18.7497 24.9993C18.7497 23.8488 17.8169 22.916 16.6663 22.916C15.5157 22.916 14.583 23.8488 14.583 24.9993C14.583 26.1499 15.5157 27.0827 16.6663 27.0827Z" fill="#0041CB"/>
<path d="M16.6663 35.4167C17.8169 35.4167 18.7497 34.4839 18.7497 33.3333C18.7497 32.1827 17.8169 31.25 16.6663 31.25C15.5157 31.25 14.583 32.1827 14.583 33.3333C14.583 34.4839 15.5157 35.4167 16.6663 35.4167Z" fill="#0041CB"/>
</g>
<defs>
<clipPath id="clip0_439_6301">
<rect width="50" height="50" fill="white"/>
</clipPath>
</defs>
</svg>
