<svg width="24" height="24" viewBox="0 0 24 24" fill="none" xmlns="http://www.w3.org/2000/svg">
<circle cx="12" cy="12" r="12" fill="#3370F0"/>
<path d="M13.373 10.0137L7.33301 16.0537V16.667H7.94634L13.9863 10.627L13.373 10.0137Z" fill="white"/>
<path d="M16.2467 6.19333C16.1133 6.06 15.9467 6 15.7733 6C15.6 6 15.4333 6.06667 15.3067 6.19333L14.0867 7.41333L16.5867 9.91333L17.8067 8.69333C18.0667 8.43333 18.0667 8.01333 17.8067 7.75333L16.2467 6.19333V6.19333ZM15.8733 10.6267L13.3733 8.12667L6 15.5V18H8.5L15.8733 10.6267V10.6267ZM7.33333 16.6667V16.0533L13.3733 10.0133L13.9867 10.6267L7.94667 16.6667H7.33333Z" fill="white"/>
</svg>
